<svg xmlns="http://www.w3.org/2000/svg" data-name="Layer 1" viewBox="0 0 512 512"><path fill="#b28b6a" d="M343.88807,224.5H444.5a30,30,0,0,1,30,30v220a30,30,0,0,1-30,30H67.5a30,30,0,0,1-30-30v-295"/><polygon fill="#787681" points="298.888 224.5 343.888 224.5 37.5 179.5 37.5 186.109 298.888 224.5"/><path fill="#a17855" d="M444.5 224.5h-45a30 30 0 0 1 30 30v220a30 30 0 0 1-30 30h45a30 30 0 0 0 30-30v-220A30 30 0 0 0 444.5 224.5zM274 136.5H405.5a30 30 0 0 1 30 30v58H81.5a44 44 0 0 1-44-44V180.5a44 44 0 0 1 44-44H199"/><path fill="#896848" d="M405.5,136.5h-45a30,30,0,0,1,30,30v58h45v-58A30,30,0,0,0,405.5,136.5Z"/><path fill="#52bbe9" d="M199,187a7.50006,7.50006,0,0,1-7.5-7.5V79.50049a2.50294,2.50294,0,0,0-2.5-2.5H132a7.5,7.5,0,0,1,0-15h57a17.52,17.52,0,0,1,17.5,17.5V179.5A7.50006,7.50006,0,0,1,199,187Z"/><circle cx="129.5" cy="70" r="17.5" fill="#aece44"/><path fill="#52bbe9" d="M274,187a7.50006,7.50006,0,0,1-7.5-7.5V79.50049a17.52,17.52,0,0,1,17.5-17.5h57a7.5,7.5,0,0,1,0,15H284a2.50294,2.50294,0,0,0-2.5,2.5V179.5A7.50006,7.50006,0,0,1,274,187Z"/><circle cx="343.5" cy="70" r="17.5" fill="#aece44"/><path fill="#95c748" d="M343.50024,52.5a17.483,17.483,0,0,0-5.00012.73438,17.49372,17.49372,0,0,1,0,33.53173A17.49817,17.49817,0,1,0,343.50024,52.5Z"/><path fill="#52bbe9" d="M236.5,187a7.50006,7.50006,0,0,1-7.5-7.5V39.50049a7.5,7.5,0,0,1,15,0V179.5A7.50006,7.50006,0,0,1,236.5,187Z"/><circle cx="236.5" cy="25" r="17.5" fill="#aece44"/><path fill="#57565c" d="M367.1792,188H105.8208a7.5,7.5,0,0,1,0-15H367.1792a7.5,7.5,0,1,1,0,15Z"/><path fill="#95c748" d="M236.5 7.5a17.483 17.483 0 0 0-5.00012.73438 17.49373 17.49373 0 0 1 0 33.53174A17.49817 17.49817 0 1 0 236.5 7.5zM129.49976 52.5a17.48306 17.48306 0 0 0-5.00013.73438 17.49372 17.49372 0 0 1 0 33.53174A17.49817 17.49817 0 1 0 129.49976 52.5z"/><circle cx="252.5" cy="366" r="104.023" fill="#cae6f7"/><path fill="#52bbe9" d="M252.5,477.523A111.52295,111.52295,0,1,1,364.023,366,111.649,111.649,0,0,1,252.5,477.523Zm0-208.0459A96.52295,96.52295,0,1,0,349.023,366,96.632,96.632,0,0,0,252.5,269.47705Z"/><path fill="#52bbe9" d="M252.5 334.41309c-37.4834 0-71.87012-6.07276-91.98535-16.24463a7.50008 7.50008 0 0 1 6.76953-13.38575c17.84521 9.02442 50.49805 14.63038 85.21582 14.63038s67.37061-5.606 85.21582-14.63038a7.50008 7.50008 0 0 1 6.76953 13.38575C324.37012 328.34033 289.9834 334.41309 252.5 334.41309zM341.09473 428.186a7.46925 7.46925 0 0 1-3.37891-.8086C319.87061 418.353 287.21777 412.74707 252.5 412.74707s-67.37061 5.606-85.21582 14.63037a7.50008 7.50008 0 1 1-6.76953-13.38574c20.11523-10.17188 54.502-16.24463 91.98535-16.24463s71.87012 6.07275 91.98535 16.24463a7.501 7.501 0 0 1-3.39062 14.19434z"/><path fill="#52bbe9" d="M252.5,477.523c-35.93115,0-64.07764-48.98682-64.07764-111.52295S216.56885,254.47705,252.5,254.47705,316.57764,303.46387,316.57764,366,288.43115,477.523,252.5,477.523Zm0-208.0459c-26.603,0-49.07764,44.20215-49.07764,96.52295S225.897,462.523,252.5,462.523,301.57764,418.3208,301.57764,366,279.103,269.47705,252.5,269.47705Z"/><path fill="#52bbe9" d="M356.523,373.5H148.47705a7.5,7.5,0,1,1,0-15H356.523a7.5,7.5,0,1,1,0,15Z"/><path fill="#52bbe9" d="M252.5,477.523a7.50006,7.50006,0,0,1-7.5-7.5V261.97705a7.5,7.5,0,1,1,15,0V470.023A7.50006,7.50006,0,0,1,252.5,477.523Z"/><path fill="#a17855" d="M418.5,340h56a0,0,0,0,1,0,0v52a0,0,0,0,1,0,0h-56a26,26,0,0,1-26-26V366A26,26,0,0,1,418.5,340Z"/><rect width="45" height="52" x="429.5" y="340" fill="#896848"/><circle cx="418.998" cy="366" r="7.5" fill="#57565c"/></svg>